<?xml version="1.0" encoding="UTF-8"?>
<svg id="Layer_1" xmlns="http://www.w3.org/2000/svg" version="1.1" viewBox="0 0 36.92 55.65">
  <!-- Generator: Adobe Illustrator 30.0.0, SVG Export Plug-In . SVG Version: 2.1.1 Build 123)  -->
  <defs>
    <style>
      .st0 {
        stroke: #bfbfbf;
      }

      .st0, .st1, .st2, .st3 {
        fill: none;
        stroke-linecap: round;
        stroke-linejoin: round;
      }

      .st1 {
        stroke: #00b2c6;
        stroke-width: 1.2px;
      }

      .st2 {
        stroke: #00e5ff;
      }

      .st2, .st3 {
        stroke-width: .5px;
      }

      .st4 {
        fill: #515151;
      }

      .st5 {
        fill: #00cce3;
      }

      .st6 {
        fill: #7f7f7f;
      }

      .st7 {
        fill: #c4c3c2;
      }

      .st3 {
        stroke: #39ebff;
      }

      .st8 {
        fill: #00e5ff;
      }

      .st9 {
        fill: #2e2e2e;
      }
    </style>
  </defs>
  <g>
    <path class="st8" d="M26.83,2.3h1.87c.33,0,.6.27.6.6v.9h-3.07v-.9c0-.33.27-.6.6-.6Z"/>
    <path class="st0" d="M29.89.65h-4.25c-.4,0-.73.34-.73.75v7.16c0,.41.33.75.73.75h4.25c.4,0,.73-.34.73-.75V1.39c0-.41-.33-.75-.73-.75h0Z"/>
    <path class="st9" d="M31.13,0h-6.73c-.15,0-.27.12-.27.27v.75c0,.15.12.27.27.27h0v.34c0,.15.12.27.27.27h.47c.15,0,.27-.12.27-.27v-.34h4.69v.34c0,.15.12.27.27.27h.47c.15,0,.27-.12.27-.27v-.34h0c.15,0,.27-.12.27-.27V.28c0-.15-.12-.27-.27-.27h.02,0Z"/>
    <path class="st8" d="M36.87,1.2v15.82c0,.66-.54,1.2-1.2,1.2h-15.81c-.66,0-1.2-.54-1.2-1.2V1.2c0-.66.54-1.2,1.2-1.2h3.14c.17,0,.32.11.38.27l.81,2.34c.06.16.21.27.38.27h6.35c.17,0,.32-.11.38-.27l.81-2.34c.06-.16.21-.27.38-.27h3.19c.66,0,1.2.54,1.2,1.2h-.01Z"/>
    <path class="st5" d="M34.87,0v16.22h-14.21V0h2.34c.17,0,.32.11.38.27l.81,2.34c.06.16.21.27.38.27h6.35c.17,0,.32-.11.38-.27l.81-2.34c.06-.16.21-.27.38-.27h2.39-.01Z"/>
    <polyline class="st1" points="23.03 13.98 23.03 5.98 23.03 7.32"/>
    <polyline class="st1" points="25.4 13.98 25.4 5.98 25.4 8.65"/>
    <polyline class="st1" points="27.77 13.98 27.77 5.98 27.77 9.98"/>
    <polyline class="st1" points="30.13 13.98 30.13 5.98 30.13 11.31"/>
    <polyline class="st1" points="32.5 13.98 32.5 5.98 32.5 12.65"/>
    <polyline class="st2" points="23.03 13.98 23.03 5.98 23.03 7.32"/>
    <polyline class="st2" points="25.4 13.98 25.4 5.98 25.4 8.65"/>
    <polyline class="st2" points="27.77 13.98 27.77 5.98 27.77 9.98"/>
    <polyline class="st2" points="30.13 13.98 30.13 5.98 30.13 11.31"/>
    <polyline class="st2" points="32.5 13.98 32.5 5.98 32.5 12.65"/>
  </g>
  <g>
    <rect class="st8" x="18.71" y="18.71" width="18.21" height="18.22" rx="1.2" ry="1.2"/>
    <rect class="st5" x="20.71" y="20.72" width="14.21" height="14.22"/>
    <polyline class="st1" points="23.08 31.82 23.08 23.82 23.08 25.15"/>
    <polyline class="st1" points="25.45 31.82 25.45 23.82 25.45 26.49"/>
    <polyline class="st1" points="27.82 31.82 27.82 23.82 27.82 27.82"/>
    <polyline class="st1" points="30.18 31.82 30.18 23.82 30.18 29.16"/>
    <polyline class="st1" points="32.55 31.82 32.55 23.82 32.55 30.49"/>
    <polyline class="st3" points="23.08 31.82 23.08 23.82 23.08 25.15"/>
    <polyline class="st3" points="25.45 31.82 25.45 23.82 25.45 26.49"/>
    <polyline class="st3" points="27.82 31.82 27.82 23.82 27.82 27.82"/>
    <polyline class="st3" points="30.18 31.82 30.18 23.82 30.18 29.16"/>
    <polyline class="st3" points="32.55 31.82 32.55 23.82 32.55 30.49"/>
  </g>
  <g>
    <rect class="st8" x="18.71" y="37.43" width="18.21" height="18.22" rx="1.2" ry="1.2"/>
    <rect class="st5" x="20.71" y="39.44" width="14.21" height="14.22"/>
    <polyline class="st1" points="23.08 50.54 23.08 42.54 23.08 43.87"/>
    <polyline class="st1" points="25.45 50.54 25.45 42.54 25.45 45.21"/>
    <polyline class="st1" points="27.82 50.54 27.82 42.54 27.82 46.54"/>
    <polyline class="st1" points="30.18 50.54 30.18 42.54 30.18 47.88"/>
    <polyline class="st1" points="32.55 50.54 32.55 42.54 32.55 49.21"/>
    <polyline class="st3" points="23.08 50.54 23.08 42.54 23.08 43.87"/>
    <polyline class="st3" points="25.45 50.54 25.45 42.54 25.45 45.21"/>
    <polyline class="st3" points="27.82 50.54 27.82 42.54 27.82 46.54"/>
    <polyline class="st3" points="30.18 50.54 30.18 42.54 30.18 47.88"/>
    <polyline class="st3" points="32.55 50.54 32.55 42.54 32.55 49.21"/>
  </g>
  <g>
    <g>
      <g>
        <path class="st9" d="M7.18,52c-.42,0-.76.34-.76.76s.34,1.72.76,1.72.76-1.3.76-1.72-.34-.76-.76-.76Z"/>
        <g id="g334">
          <path class="st4" d="M7.17,52.98c-.74,0-1.33.6-1.33,1.33s.6,1.33,1.33,1.33,1.33-.6,1.33-1.33-.6-1.33-1.33-1.33Z"/>
          <path class="st6" d="M7.17,53.5c-.45,0-.82.37-.82.82s.36.82.82.82.82-.37.82-.82-.36-.82-.82-.82Z"/>
          <path class="st7" d="M7.17,53.93c-.21,0-.39.17-.39.39s.17.48.39.48.39-.26.39-.48-.17-.39-.39-.39Z"/>
        </g>
      </g>
      <g>
        <path class="st9" d="M11.49,52c-.42,0-.76.34-.76.76s.34,1.72.76,1.72.76-1.3.76-1.72-.34-.76-.76-.76Z"/>
        <g id="g337">
          <path class="st4" d="M11.47,52.98c-.74,0-1.33.6-1.33,1.33s.6,1.33,1.33,1.33,1.33-.6,1.33-1.33-.6-1.33-1.33-1.33Z"/>
          <path class="st6" d="M11.47,53.5c-.45,0-.82.37-.82.82s.36.82.82.82.82-.37.82-.82-.36-.82-.82-.82Z"/>
          <path class="st7" d="M11.47,53.93c-.21,0-.39.17-.39.39s.17.48.39.48.39-.26.39-.48-.17-.39-.39-.39Z"/>
        </g>
      </g>
    </g>
    <path class="st8" d="M18.21,38.63v15.82c0,.67-.54,1.2-1.2,1.2h-1.64c-.66,0-1.2-.54-1.2-1.2v-1.24c0-.22-.18-.4-.4-.4H4.44c-.22,0-.4.18-.4.4v1.24c0,.66-.54,1.2-1.2,1.2h-1.64C.54,55.65,0,55.12,0,54.45v-15.82C0,37.97.54,37.43,1.2,37.43h15.81c.66,0,1.2.54,1.2,1.2Z"/>
    <path class="st5" d="M16.21,39.43v16.22h-.84c-.66,0-1.2-.54-1.2-1.2v-1.24c0-.22-.18-.4-.4-.4H4.44c-.22,0-.4.18-.4.4v1.24c0,.66-.54,1.2-1.2,1.2h-.84v-16.22h14.21Z"/>
    <polyline class="st1" points="4.37 50.18 4.37 42.18 4.37 43.51"/>
    <polyline class="st1" points="6.74 50.18 6.74 42.18 6.74 44.85"/>
    <polyline class="st1" points="9.11 50.18 9.11 42.18 9.11 46.18"/>
    <polyline class="st1" points="11.47 50.18 11.47 42.18 11.47 47.51"/>
    <polyline class="st1" points="13.84 50.18 13.84 42.18 13.84 48.85"/>
    <polyline class="st2" points="4.37 50.18 4.37 42.18 4.37 43.51"/>
    <polyline class="st2" points="6.74 50.18 6.74 42.18 6.74 44.85"/>
    <polyline class="st2" points="9.11 50.18 9.11 42.18 9.11 46.18"/>
    <polyline class="st2" points="11.47 50.18 11.47 42.18 11.47 47.51"/>
    <polyline class="st2" points="13.84 50.18 13.84 42.18 13.84 48.85"/>
  </g>
</svg>